<svg version="1" xmlns="http://www.w3.org/2000/svg" width="698.667" height="698.667" viewBox="0 0 524.000000 524.000000"><path d="M246 .6c-32.6 2.8-58.8 9.5-83.5 21.3C99.8 51.9 62 105.4 53.3 176.7l-1.8 14.1-3.5.6c-5.2.8-13.3 5.2-18.7 10.1C13 216.2 7.2 246.6 15 276.9c7.1 28 24.2 49.1 44.7 55.1 2.3.7 4.5 2 4.8 2.9.4.9 4.9 13.7 10.1 28.5 17.6 49.8 22.5 61.9 33 82.6 11.9 23.5 26.4 42.1 42.3 54 14.2 10.7 33.5 18.5 53.3 21.4 11.9 1.8 35 2.1 47.7.6 6-.7 10.6-.6 15.5.2 10.6 1.8 34.4 1.5 44.9-.6 41-7.9 73.5-35 98.3-82.1 6.1-11.6 10.3-21.1 18.4-42 5.6-14.4 24-54.5 28-61 1.6-2.6 3.2-3.5 8.5-4.9 33.1-9 55.7-60.3 45.4-103.1-4.4-18.6-18-33.5-34.2-37.6-2.6-.6-5.1-1.7-5.6-2.3-.6-.7-1.5-5.4-2.1-10.4-5.3-47.4-23.9-87.2-55.2-118.3C381.5 28.8 337 8 289.1 2.1 279.7.9 253 0 246 .6zm12.8 24.9c28.2 5.6 42.9 25.9 33.3 46-3.6 7.8-10.1 13.6-20.4 18.6-13.6 6.4-18.7 7.4-39.2 7.4-17.1 0-18.4-.2-26-2.8-19.5-6.8-29.6-18.9-28.2-33.7 1.9-21.2 27.7-36.7 61.5-36.9 6.4-.1 14.6.6 19 1.4zm-102 44.2c11.3 5.4 8.7 27.6-5.3 44.8-6.1 7.5-9.4 10.3-15.9 13.7-17.4 9.3-31.6 3.6-31.6-12.7.1-15.8 21.1-42.2 38-47.6 3.3-1 10.6-.1 14.8 1.8zM98.5 209.1c2.2.6 8.8 3.4 14.7 6.1l10.8 5.1.2 35.6.3 35.6 6 2.4c5.3 2.2 7.8 2.5 22.3 2.9l16.2.4V237h2.9c1.6 0 4.3.3 6 .6l3.1.6v57.6l3.8-1c2-.5 6.7-2.3 10.3-4 8.1-3.6 7.9-3 7.9-27.1 0-9.2.4-16.7.9-16.7.9 0 28.3 12 34.4 15.2 4.5 2.3 4.5 3.2-.2 13.3-6.2 13.2-16.9 23.9-30.6 30.4-13.5 6.5-19.4 7.6-40 7.5-16.6 0-18.7-.2-27-2.7-18.9-5.8-34.4-15.4-48.1-29.9C80.3 268.1 75 254.5 75 236.6c0-23.2 7.4-31.9 23.5-27.5zm338.5.4c5.5 2.8 8.4 12.8 8.3 28.5-.2 26.7-17.4 50.6-46.8 65.1-35 17.2-72.9 14.8-101-6.4-9.7-7.3-16.2-16.7-18.5-27.1-1-4.5-.9-5.1 1.2-7.3 3.3-3.5 11.5-7.2 24.1-10.8l11.2-3.2.5 20.3c.3 11.1.7 20.5 1 20.7.3.3 3.9 2.2 8 4.1l7.4 3.6H362v-65l5.6-2.5c3.1-1.4 6-2.5 6.5-2.5s.9 15.3.9 34.1v34.1l2.7-.7c1.5-.3 6.3-2 10.5-3.7l7.8-2.9v-69.5l14.3-4.7c19.5-6.4 21.8-6.7 26.7-4.2zM201.1 392.3l3.4 2.3.3 12.7.3 12.7H227v24.4l-3.2 3.3c-4.7 4.8-10.5 4.5-16.5-1-2.1-1.9-2.3-2.9-2.3-13.9V421h-9.8c-6.3 0-10.2-.4-11-1.2-.8-.8-1.2-5.2-1.2-13.4v-12.2l3.3-2.1c4.4-2.8 10.5-2.7 14.8.2zm44 0l3.4 2.3.3 12.7.3 12.7h22l-.3 13.2-.3 13.2-3.5 2.4c-5.2 3.5-11.3 2.7-15.7-2.2L248 443v-22h-19.9l-1-3.8c-2.4-8.5-.9-19 3.5-24.2 2.1-2.5 3.3-3 6.8-3 2.8 0 5.5.8 7.7 2.3zm43.9-.7l4 1.6V420h22v25.9l-3 2.1c-4.2 3-9.9 3.6-13.8 1.6-5-2.6-6.2-6.1-6.2-18.1V421h-9.9c-11.4 0-10.9.4-11.8-10.2-1.4-16.4 6.2-24.2 18.7-19.2zm42.3-.5c1.2.6 3.2 2.1 4.5 3.2 2.1 1.9 2.2 2.9 2.2 14.4V421h-11c-10.9 0-11.1 0-12-2.6-1.3-3.3-1.3-14.9 0-19.5 1.5-5.5 5.5-8.9 10.2-8.9 2.2 0 4.9.5 6.1 1.1z"/></svg>