<?xml version="1.0" encoding="utf-8"?>
<!-- Generator: Adobe Illustrator 25.0.0, SVG Export Plug-In . SVG Version: 6.00 Build 0)  -->
<svg version="1.1" id="Layer_1" xmlns:serif="http://www.serif.com/"
	 xmlns="http://www.w3.org/2000/svg" xmlns:xlink="http://www.w3.org/1999/xlink" x="0px" y="0px" viewBox="0 0 800 800"
	 enable-background="new 0 0 800 800" xml:space="preserve">
<g id="Envelope">
	<path fill="#931020" stroke="#FFFFFF" stroke-width="0.8997" stroke-miterlimit="10" d="M158.5,475.4c0-18.1,0-36.3,0-54.4
		c7.3-0.4,11-0.8,18.3-1.3c0,4.4,0.4,7.7,1.3,10.3c0.9,2.4,2,4.4,3.3,5.7c1.3,1.3,2.6,2.1,4,2.4c1.3,0.4,2.8,0.5,3.7,0.5
		c0.8,0,1.7-0.4,2.8-0.7c1.1-0.4,1.9-0.9,2.8-1.7c0.8-0.8,1.5-1.9,2.1-3.1s0.8-2.9,0.8-4.9c0-2.4-0.9-4.4-2.8-5.8
		c-1.9-1.5-4.2-2.9-7-4.2s-5.8-3.1-9.1-5c-3.2-2-6.4-4.8-9.1-8.5c-2.8-3.7-5-8.5-6.9-14.6c-1.9-6-2.8-13.6-2.8-22.9
		c0-7.8,0.8-14.7,2.3-20.3c1.5-5.6,3.4-9.9,5.8-13c2.3-3.1,4.9-5.3,7.6-6.4c2.8-1.2,5.3-1.3,7.7-0.8c2.1,0.4,4,1.3,6.1,2.5
		c2.1,1.2,4,2.8,5.8,4.6c1.9,2,3.4,4.2,4.9,7c1.5,2.8,2.8,5.8,3.7,9.5c0.4-6.2,0.5-9.4,1.1-15.5c6.8,1.3,10.3,2.1,17.1,3.3
		c0,14.8,0,29.5,0,44.3c-7.3-0.4-10.9-0.5-18-1.1c0-3.4-0.4-6.6-1.1-9.4c-0.7-2.8-1.6-5-2.8-7.1c-1.2-2-2.5-3.6-4-4.8
		c-1.5-1.2-3.2-1.9-4.9-2.1c-0.7-0.1-1.5,0-2.3,0.4s-1.5,0.9-2.2,1.7c-0.7,0.8-1.3,1.9-1.7,3.1c-0.4,1.3-0.7,2.8-0.7,4.5
		c0,3.4,0.9,6.4,2.9,8.7c2,2.4,4.4,4.6,7.3,6.7c2.9,2.1,6,4.2,9.4,6.6c3.3,2.3,6.6,4.9,9.4,8.2c2.9,3.1,5.3,7,7.3,11.5
		c2,4.5,2.9,10.3,2.9,17.1c0,6.9-0.8,12.8-2.4,17.7c-1.6,4.9-3.7,9.3-6.2,12.7c-2.5,3.6-5.4,6.4-8.5,8.3c-3.1,2-6.1,3.3-9.1,4
		c-2.5,0.5-4.9,0.5-6.9,0s-4-1.5-5.8-2.9c-1.7-1.3-3.2-3-4.6-4.9c-1.3-2-2.4-4-3.3-6.1c-0.4,6.4-0.7,9.5-1.1,15.9
		C169,472.9,165.5,473.6,158.5,475.4z M260.2,365.1c-2.2-0.3-3.2-0.4-5.4-0.5c0,10.3,0,15.7,0,26.1c7.4-10.3,11.2-15,18.5-24.2
		c-2.9-0.3-4.4-0.4-7.3-0.7c0-7.9,0-12,0-20c11.1,1.7,22.2,3.3,33.5,4.8c0,7.3,0,11,0,18.3c-2.3-0.3-3.4-0.3-5.8-0.4
		c-5.8,6.7-8.7,10.2-14.6,17.3c6.6,15.1,13.2,30.2,20.3,45.3c2.3-0.3,3.4-0.3,5.8-0.4c0,7.3,0,10.9,0,18
		c-13.1,1.7-26.2,3.6-39.2,5.6c0-8.1,0-12.1,0-20.1c2.8-0.3,4-0.4,6.8-0.7c-4.4-9.9-6.5-15-10.9-25.5c-3,4-4.4,6.1-7.4,10.3
		c0,6.8,0,10.3,0,17.1c2.2-0.3,3.2-0.4,5.4-0.5c0,8.2,0,12.2,0,20.4c-12.6,2.1-18.8,3.1-31.4,5.4c0-9,0-13.5,0-22.5
		c2.2-0.3,3.2-0.4,5.4-0.5c0-24.9,0-49.9,0-74.9c-2.2-0.3-3.2-0.4-5.4-0.5c0-8.9,0-13.4,0-22.2c12.6,2.3,18.8,3.3,31.4,5.4
		C260.2,352.9,260.2,357,260.2,365.1z M310.5,351.8c11.2,1.3,22.2,2.5,33.5,3.7c0,6.7,0,10.1,0,16.7c-2.5-0.1-3.8-0.3-6.2-0.4
		c0,18.5,0,37.2,0,55.7c2.5-0.1,3.8-0.3,6.2-0.4c0,6.7,0,10.2,0,16.8c-11.2,1.1-22.4,2.3-33.5,3.7c0-7.3,0-11,0-18.3
		c2.5-0.3,3.8-0.3,6.4-0.4c0-19.5,0-39,0-58.5c-2.5-0.3-3.8-0.3-6.4-0.4C310.5,362.7,310.5,359.1,310.5,351.8z M426.6,375.3
		c-2.6-0.1-4-0.1-6.7-0.1c0,21.2,0,42.4,0,63.6c-8.7,0.4-13.1,0.5-21.8,1.1c-8.7-14.6-17.5-29.1-25.8-43.8c0,12,0,18.1,0,30.1
		c3.1-0.1,4.8-0.3,7.8-0.4c0,6.1,0,9.1,0,15.2c-12.4,0.9-18.7,1.3-31.1,2.5c0-6.5,0-9.7,0-16.2c2.4-0.1,3.6-0.3,6-0.4
		c0-18.3,0-36.3,0-54.6c-2.3-0.1-3.6-0.3-5.8-0.4c0-6.5,0-9.7,0-16.2c11.7,1.1,17.5,1.5,29.1,2.4c8.2,14.6,16.5,29,24.9,43.4
		c0-10.9-0.1-16.3-0.1-27.1c-2.8-0.1-4.1-0.1-6.9-0.3c0-5.8,0-8.9,0-14.8c12.2,0.7,18.4,1.1,30.6,1.5
		C426.6,366.8,426.6,369.6,426.6,375.3z M431.9,361.2c11,0.4,22,0.5,33,0.7c0,5.8,0,8.5,0,14.3c-2.5,0-3.8,0-6.4,0
		c0,6.6,0,9.8,0,16.4c7.7,0,11.7,0,19.3,0c0-6.6,0-9.8,0-16.4c-2.4,0-3.6,0-6,0c0-5.8,0-8.5,0-14.3c11,0.1,22,0,33.1-0.3
		c0,5.8,0,8.6,0,14.4c-2.3,0-3.6,0-5.8,0.1c0,15.8,0,31.5,0,47.3c2.3,0,3.6,0,5.8,0.1c0,5.8,0,8.6,0,14.4c-11-0.3-22-0.4-33.1-0.3
		c0-5.8,0-8.5,0-14.3c2.4,0,3.6,0,6,0c0-6.6,0-9.8,0-16.4c-7.7,0-11.7,0-19.3,0c0,6.6,0,9.8,0,16.4c2.5,0,3.8,0,6.4,0
		c0,5.8,0,8.5,0,14.3c-11,0.1-22,0.4-33,0.7c0-5.8,0-8.7,0-14.6c2.2,0,3.3-0.1,5.6-0.1c0-15.9,0-31.8,0-47.8c-2.2,0-3.3-0.1-5.6-0.1
		C431.9,369.8,431.9,366.9,431.9,361.2z M509.9,361.5c20.4-0.5,40.8-1.5,61.3-2.8c0,10.3,0,15.6,0,25.8c-7,0.1-10.5,0.3-17.5,0.4
		c0-4,0-6.1,0-10.2c-6.5,0.3-9.7,0.4-16.3,0.4c0,6.1,0,9.3,0,15.5c7.7-0.1,11.5-0.1,19.3-0.3c0,6.1,0,9.1,0,15.2
		c-7.7-0.1-11.5-0.1-19.3-0.1c0,7.3,0,11,0,18.3c6.5,0.3,9.7,0.3,16.3,0.4c0-4.2,0-6.4,0-10.6c7,0.1,10.5,0.3,17.5,0.4
		c0,10.6,0,15.9,0,26.5c-20.4-1.3-40.8-2.2-61.3-2.8c0-5.8,0-8.7,0-14.6c2.5,0,3.8,0,6.5,0.1c0-15.9,0-31.8,0-47.7
		c-2.5,0-3.8,0.1-6.5,0.1C509.9,370.2,509.9,367.3,509.9,361.5z M655.3,449c-13.5-1.7-27-3.3-40.5-4.6c0-6.7,0-10.1,0-16.7
		c3.8,0.3,5.8,0.4,9.5,0.5c-0.8-3.6-1.3-5.4-2.1-9c-8.3-0.4-12.4-0.5-20.8-0.9c-0.8,3.3-1.3,4.9-2.1,8.3c3.1,0.3,4.8,0.3,7.8,0.4
		c0,6.6,0,9.9,0,16.5c-10.7-1.1-21.4-2-32.2-2.6c0-6.2,0-9.3,0-15.5c2.8,0.1,4.1,0.3,6.9,0.4c4.6-17.6,9.3-35.4,13.8-53.1
		c-1.6,0.1-2.5,0.1-4.1,0.3c0-6.2,0-9.4,0-15.7c13-1.2,25.8-2.4,38.8-3.7c6.1,25.5,12.1,50.8,17.9,76.5c2.8,0.3,4.2,0.4,7,0.5
		C655.3,437.9,655.3,441.6,655.3,449z M605.3,403.6c5.3,0,7.9,0.1,13.2,0.1c-2.6-11.2-4-16.6-6.7-27.4
		C609.3,387.3,608,392.8,605.3,403.6z M659.3,449.6c0-7.6,0-11.3,0-18.9c2.5,0.3,3.7,0.4,6.2,0.5c0-21,0-41.8,0-62.9
		c-2.5,0.3-3.7,0.4-6.2,0.5c0-7.5,0-11.3,0-18.8c12.3-1.6,18.4-2.5,30.6-4.4c6.1-0.9,11.4-0.4,16.2,1.7s8.6,5.6,11.9,10.3
		s5.7,10.6,7.4,17.5c1.7,7,2.8,14.8,2.5,23c-0.4,15.2-1.7,31.4-9.9,44.8c-5.3,8.6-18.7,13.5-28.5,11
		C677.5,452,671.4,451.1,659.3,449.6z M705,398.2c0-4.2-0.3-8.5-0.8-12.6c-0.5-4-1.5-7.5-2.6-10.6c-1.2-3-2.8-5.3-4.6-7
		c-1.9-1.6-4.1-2.3-6.8-2.1c-1.5,0.1-2.3,0.3-3.8,0.4c0,22.1,0,44.4,0,66.6c1.5,0.1,2.3,0.3,3.8,0.4c2.6,0.1,4.9-0.5,6.8-2.2
		c1.9-1.6,3.4-4,4.6-7.3c1.2-3.2,2.1-6.9,2.6-11.4C704.6,408.1,705,403.3,705,398.2z M731.4,461.2c0-14.8,0-29.5,0-44.3
		c7.4,0.4,11.1,0.5,18.4,1.1c0,4,0.4,7.1,1.3,9.5c0.9,2.4,2.1,4.4,3.3,5.8c1.3,1.5,2.6,2.5,4,3.2c1.3,0.7,2.6,1.3,3.7,1.3
		c0.8,0.1,1.7,0.1,2.8,0c1.1-0.1,1.9-0.4,2.8-1.2c0.8-0.5,1.5-1.5,2.1-2.8c0.5-1.2,0.8-2.9,0.8-4.9c0-2.5-0.9-4.8-2.8-6.5
		c-1.9-1.7-4.2-3.6-7-5.2c-2.8-1.7-5.8-3.6-9.1-5.7c-3.3-2.1-6.4-4.8-9.3-8.1c-2.8-3.3-5.2-7.4-7-12.2c-1.9-4.9-2.9-11-2.9-18.5
		c0-6.5,0.8-12.2,2.3-17.2c1.6-5,3.6-9.4,5.8-13c2.3-3.6,4.9-6.5,7.6-8.6c2.8-2.2,5.3-3.6,7.7-4.1c2.1-0.4,4-0.5,6.1-0.4
		s4,0.9,5.8,2.2c1.9,1.2,3.4,2.9,4.9,5.2c1.5,2.3,2.6,5.3,3.7,8.9c0.4-6.9,0.5-10.3,1.1-17.3c6.8-1.5,10.2-2.3,16.8-4
		c0,18,0,36,0,54c-7,0.4-10.6,0.7-17.7,1.2c0-3.8-0.4-7.1-1.1-9.9c-0.7-2.9-1.6-5.2-2.6-7c-1.2-1.9-2.5-3.2-4-4
		c-1.5-0.8-3.2-1.1-4.9-0.8c-0.7,0.1-1.5,0.4-2.3,0.9c-0.8,0.5-1.5,1.3-2.2,2.2c-0.7,0.9-1.3,2.1-1.7,3.3c-0.4,1.3-0.7,2.8-0.7,4.5
		c0,3.3,0.9,6,2.9,7.9c2,2.1,4.4,4,7.3,5.8c2.9,1.9,6,3.8,9.4,6.1c3.3,2.3,6.5,5.2,9.4,8.7c2.9,3.6,5.3,8.2,7.1,13.9
		c2,5.7,2.9,12.8,2.9,21.3c0,8.5-0.8,15.6-2.4,21s-3.7,9.7-6.1,12.7c-2.5,3-5.3,4.9-8.5,5.7c-3.1,0.8-6.1,0.8-9.1,0.1
		c-2.5-0.5-4.9-1.6-6.9-3.1c-2.1-1.5-4-3.2-5.8-5.3c-1.7-2-3.2-4.1-4.6-6.5c-1.3-2.3-2.5-4.6-3.4-6.8c-0.4,5.7-0.7,8.5-1.1,14
		C741.8,463.2,738.4,462.5,731.4,461.2z"/>
	<path fill="#FFFFFF" stroke="#FFFFFF" stroke-width="0.8997" stroke-miterlimit="10" d="M157.2,477.1v-57.4l1.3-0.1
		c3.6-0.2,6.4-0.4,9.1-0.6c2.8-0.2,5.5-0.4,9.2-0.6l1.4-0.1v1.4c0,4.2,0.4,7.4,1.3,9.8c0.9,2.3,1.9,4.1,3,5.1
		c1.1,1.1,2.2,1.8,3.4,2.1c1.3,0.4,2.6,0.5,3.3,0.5c0.4,0,1.1-0.2,1.9-0.4l0.5-0.2c0.8-0.3,1.4-0.7,2.3-1.4c0.6-0.6,1.3-1.6,1.7-2.7
		c0.4-1.1,0.7-2.5,0.7-4.4c0-2.1-0.7-3.6-2.2-4.7c-1.7-1.4-3.9-2.7-6.8-4.1c-2.7-1.3-5.6-3-8.7-4.8l-0.4-0.3
		c-3.7-2.2-6.8-5.2-9.5-8.8c-2.8-3.7-5.1-8.6-7.1-14.9c-1.9-6.2-2.8-13.8-2.8-23.3c0-7.8,0.8-14.8,2.4-20.7
		c1.6-5.8,3.5-10.3,5.9-13.5c2.5-3.4,5.2-5.7,8.3-6.8c2.9-1.2,5.7-1.5,8.5-0.9c2.2,0.4,4.3,1.3,6.6,2.7c2,1.1,4,2.7,6.1,4.8
		c1.9,2,3.5,4.2,5.2,7.3c0.5,1.1,1.1,2.1,1.5,3.2c0.2-2.6,0.4-5.1,0.6-8.6l0.1-1.5l1.4,0.3c1.8,0.4,3.4,0.7,4.9,1
		c4,0.8,7.2,1.4,12.1,2.3l1.1,0.2v46.8l-1.4-0.1c-7.2-0.4-10.8-0.5-18-1.1l-1.3-0.1v-1.3c0-3.3-0.4-6.4-1.1-9
		c-0.6-2.6-1.5-4.8-2.7-6.7c-1.1-1.9-2.3-3.3-3.7-4.3c-1.3-1-2.8-1.6-4.2-1.8c-0.5-0.1-1.1,0-1.6,0.3c-0.6,0.3-1.2,0.7-1.6,1.3
		c-0.6,0.7-1.1,1.5-1.5,2.8c-0.4,1.2-0.6,2.6-0.6,4c0,3.2,0.9,5.8,2.5,7.8c1.8,2.2,4.1,4.3,7,6.5c2.8,2,5.8,4,9.4,6.6
		c4,2.9,7.1,5.5,9.7,8.4c3,3.2,5.5,7.2,7.6,11.9c2,4.6,3,10.3,3,17.6c0,7.1-0.8,13-2.5,18.2c-1.7,5.2-3.9,9.6-6.4,13
		c-2.6,3.7-5.7,6.7-8.9,8.6c-3.3,2.1-6.4,3.5-9.4,4.2c-2.8,0.6-5.3,0.6-7.6,0c-2.2-0.5-4.4-1.7-6.3-3.1c-1.9-1.5-3.5-3.2-4.9-5.2
		c-0.4-0.6-0.8-1.3-1.3-1.9c-0.3,3.6-0.4,6.5-0.7,11.1l-0.1,1l-1,0.3c-2.9,0.7-5.2,1.3-7.5,1.8c-3,0.7-5.8,1.3-9.8,2.4L157.2,477.1z
		 M159.9,422.3v51.5c3.1-0.8,5.6-1.3,8.2-2c2-0.4,4-1,6.5-1.5c0.3-4,0.4-6.8,0.7-10.3c0.1-1.4,0.2-3,0.4-4.7l0.4-5.5l2.2,5
		c1,2.2,2,4.1,3.2,5.9c1.3,1.8,2.6,3.3,4.3,4.7c1.5,1.3,3.4,2.2,5.2,2.6c1.9,0.4,4,0.4,6.3,0c2.7-0.6,5.6-1.9,8.6-3.9
		c3-1.8,5.8-4.5,8.2-7.9c2.4-3.2,4.4-7.4,6-12.3c1.6-4.9,2.3-10.5,2.3-17.3c0-6.8-0.9-12.4-2.8-16.6c-2-4.4-4.3-8.2-7-11.2
		c-2.4-2.8-5.4-5.3-9.3-8c-3.6-2.5-6.7-4.6-9.4-6.6c-3.1-2.2-5.6-4.5-7.6-6.9c-2.1-2.5-3.1-5.8-3.1-9.5c0-1.8,0.3-3.5,0.8-4.9
		c0.5-1.5,1.2-2.7,2-3.6c0.7-0.9,1.5-1.6,2.6-2.1c1-0.4,2.1-0.6,3.1-0.4c1.9,0.2,3.8,1.1,5.5,2.3c1.6,1.3,3.1,3,4.4,5.1
		c1.3,2.2,2.2,4.6,3,7.5c0.6,2.5,1,5.4,1.1,8.5c5.9,0.4,9.4,0.6,15.3,0.9v-41.9c-4.4-0.8-7.4-1.4-11.1-2.2c-1.1-0.2-2.2-0.4-3.4-0.7
		c-0.4,5-0.6,8.1-0.9,13.7l-0.5,9.3l-2.2-8.6c-0.8-3.3-2-6.3-3.6-9.2c-1.6-2.9-3.1-4.9-4.8-6.7c-1.9-1.9-3.7-3.3-5.6-4.3
		c-2-1.2-3.8-2-5.8-2.3c-2.2-0.5-4.5-0.3-6.9,0.7c-2.5,1-4.9,2.9-7.1,5.9c-2.2,3-4,7.1-5.6,12.6c-1.5,5.7-2.2,12.3-2.2,20
		c0,9.3,0.9,16.6,2.7,22.5c1.9,6,4.1,10.7,6.7,14.1c2.4,3.3,5.4,6.1,8.7,8.1l0.4,0.3c3.1,1.8,5.9,3.4,8.5,4.7
		c3.1,1.5,5.5,2.9,7.3,4.4c2.2,1.5,3.3,3.9,3.3,6.8c0,2.2-0.3,4-0.9,5.5c-0.6,1.3-1.4,2.6-2.3,3.6c-1.2,1.1-2.2,1.6-3.3,2.1
		l-0.4,0.2c-0.9,0.4-1.8,0.6-2.7,0.6c-1.1,0-2.7-0.3-4-0.6c-1.6-0.4-3.2-1.3-4.7-2.8c-1.3-1.3-2.6-3.3-3.6-6.1
		c-0.9-2.4-1.3-5.5-1.4-9.3c-3,0.2-5.3,0.4-7.7,0.5C165.4,421.9,162.9,422.1,159.9,422.3z M774.6,473.9c-1.5,0-3.1-0.2-4.7-0.5
		c-2.6-0.5-5.1-1.7-7.4-3.4c-2.5-1.9-4.4-3.6-6-5.6c-1.7-2-3.3-4.2-4.7-6.7c-0.4-0.8-0.9-1.6-1.3-2.3c-0.3,2.9-0.4,5.4-0.6,9
		l-0.1,1.4l-1.4-0.3c-4.7-0.7-7.7-1.3-11.5-2.1c-1.6-0.3-3.4-0.6-5.6-1l-1.1-0.2v-46.8l1.4,0.1c7.4,0.4,11.1,0.5,18.4,1.1l1.3,0.1
		v1.3c0,3.8,0.4,6.8,1.3,9.1c0.8,2.2,1.9,4,3.1,5.4c1.1,1.3,2.2,2.2,3.6,2.9c0.9,0.4,2.2,1.2,3.2,1.2c0.7,0.1,1.6,0.1,2.6,0
		c0.8-0.1,1.3-0.3,2.1-0.9l0.1-0.1c0.5-0.4,1.2-1.2,1.6-2.2c0.4-0.7,0.7-2,0.7-4.4c0-2.2-0.8-4-2.3-5.5c-2.3-2.1-4.5-3.8-6.7-5
		c-2.7-1.6-5.8-3.6-9.2-5.7c-3.4-2.1-6.6-4.9-9.5-8.4c-3.1-3.7-5.5-7.9-7.3-12.7c-2-5-3-11.4-3-19c0-6.5,0.8-12.4,2.4-17.5
		c1.6-5,3.6-9.5,6-13.3c2.3-3.6,5-6.7,7.9-9c3.1-2.4,5.8-3.9,8.3-4.4c2.1-0.4,4.2-0.6,6.6-0.4c2.3,0.2,4.5,1,6.5,2.4
		c1.9,1.2,3.5,2.9,5.3,5.6c0.6,0.9,1.1,1.9,1.5,2.9c0.2-3.3,0.4-6.3,0.7-10.6l0.1-1l1-0.2c6.8-1.5,10.2-2.3,16.8-4l1.7-0.4v56.9
		l-1.3,0.1c-3.3,0.2-5.8,0.4-8.4,0.5c-2.8,0.2-5.6,0.4-9.4,0.6l-1.4,0.1v-1.4c0-3.7-0.4-6.9-1.1-9.5c-0.6-2.7-1.5-4.9-2.5-6.7
		c-1-1.6-2.2-2.8-3.5-3.5c-1.3-0.6-2.7-0.9-4-0.6c-0.4,0.1-1.1,0.3-1.9,0.7c-0.6,0.4-1.3,1.1-1.8,1.8c-0.6,0.7-1.1,1.7-1.5,3
		c-0.4,1.2-0.6,2.6-0.6,4c0,3.1,0.8,5.4,2.4,6.9c1.9,2,4.2,3.8,7.1,5.6c1,0.6,2,1.3,3.1,2c2.1,1.3,4.1,2.6,6.4,4.2
		c3.5,2.5,6.7,5.5,9.6,9c3.1,3.9,5.6,8.6,7.4,14.3c2,5.7,3,12.8,3,21.8c0,8.6-0.8,15.8-2.5,21.3c-1.7,5.7-3.9,10.1-6.4,13.1
		c-2.8,3.2-5.8,5.2-9.2,6.1C778,473.6,776.3,473.9,774.6,473.9z M748.7,444.4l2.2,5.4c0.8,2,1.9,4,3.3,6.7c1.3,2.2,2.8,4.3,4.4,6.3
		c1.4,1.8,3.2,3.4,5.6,5.1c2,1.4,4.1,2.4,6.4,2.9c2.9,0.7,5.6,0.6,8.5-0.1c2.9-0.7,5.4-2.4,7.7-5.2c2.2-2.8,4.2-6.9,5.8-12.2
		c1.6-5.2,2.3-12.1,2.3-20.6c0-8.6-0.9-15.5-2.8-20.9c-1.7-5.3-4-9.9-6.9-13.5c-2.7-3.2-5.8-6.1-9.1-8.5c-2.2-1.5-4.2-2.9-6.3-4.1
		c-1.1-0.6-2.1-1.3-3.1-2c-3.1-1.9-5.5-3.9-7.6-5.9c-2.2-2.1-3.2-5-3.2-8.8c0-1.8,0.3-3.5,0.8-4.9c0.5-1.6,1.2-2.8,1.9-3.7
		c0.6-1,1.5-1.8,2.4-2.4l0.1-0.1c1.1-0.6,2-1,2.8-1.1c1.9-0.3,3.9,0,5.7,1c1.7,0.9,3.2,2.4,4.6,4.5c1.2,2.1,2.1,4.5,2.8,7.4
		c0.6,2.5,1,5.5,1.1,8.8c3.1-0.2,5.5-0.4,7.9-0.5c2.2-0.2,4.4-0.3,7.1-0.4v-51c-5.3,1.3-8.5,2.1-14.2,3.3c-0.4,6.3-0.6,9.7-1,16.3
		l-0.4,7.7l-2.2-7.5c-0.9-3.1-2-6.2-3.5-8.5c-1.5-2.3-2.9-3.8-4.5-4.8c-1.6-1.2-3.4-1.8-5.2-2c-2.1-0.2-3.9-0.1-5.8,0.4
		c-2.1,0.4-4.4,1.7-7.2,3.9c-2.7,2.2-5.1,4.9-7.4,8.3c-2.2,3.6-4.1,7.8-5.7,12.6c-1.5,4.9-2.2,10.5-2.2,16.7
		c0,7.2,0.9,13.3,2.8,18.1c1.6,4.5,4,8.5,6.8,11.9c2.9,3.2,5.8,5.8,8.9,7.8c3.3,2.2,6.5,4,9.1,5.7c2.4,1.3,4.8,3.1,7.2,5.4
		c2.2,1.9,3.2,4.5,3.2,7.5c0,2.3-0.3,4.1-0.9,5.5c-0.6,1.4-1.5,2.6-2.5,3.3c-1.2,0.9-2.2,1.3-3.5,1.4c-1.2,0.1-2.2,0.1-3.1,0
		c-1.1-0.1-2.4-0.5-4.1-1.5c-1.7-0.9-3.1-2.1-4.5-3.6c-1.4-1.6-2.6-3.8-3.5-6.2c-0.9-2.3-1.3-5.2-1.4-8.7c-6.1-0.4-9.7-0.6-15.7-0.9
		v41.7c1.6,0.3,3.1,0.5,4.5,0.8c3.4,0.6,6.1,1.2,10,1.8c0.2-3.1,0.4-5.5,0.6-8.4c0.1-1.3,0.2-2.6,0.4-4.2L748.7,444.4z M227.3,462
		v-25.3l1.2-0.2c1.7-0.2,2.8-0.4,4.2-0.4v-72.4c-1.4-0.2-2.4-0.3-4.1-0.4l-1.3-0.1v-25.1l1.6,0.3c11.4,2.2,17.6,3.1,28,4.9l4.5,0.7
		v1.1c0.2,7.7,0.2,11.9,0.2,20v1.5l-1.5-0.2c-1.6-0.2-2.6-0.3-3.9-0.4v20.4c5.5-7.6,9.1-12.1,14.6-18.9c-0.4,0-0.8-0.1-1.2-0.1
		c-1.1-0.1-2.2-0.2-3.6-0.4l-1.3-0.1v-22.7l1.5,0.3c12.3,1.9,23.2,3.4,33.5,4.8l1.2,0.2v21l-1.5-0.2c-1.5-0.2-2.4-0.3-3.7-0.3
		c-0.4,0-0.9-0.1-1.4-0.1c-5.4,6.1-8.2,9.5-13.6,16.1c6.1,13.9,12.7,28.9,19.6,43.6c1.1-0.1,1.9-0.2,2.9-0.2c0.6,0,1.3-0.1,2.1-0.2
		l1.4-0.1v20.4l-1.2,0.2c-11.8,1.5-24.2,3.3-39.2,5.6l-1.5,0.3v-22.9l2.9-0.3c1.2-0.1,2.2-0.2,3.3-0.4c-2.9-6.5-4.8-11-7.2-16.9
		c-0.6-1.4-1.3-3.1-2-4.8c-1.3,1.8-2.3,3.2-3.6,4.9c-0.6,0.9-1.3,1.9-2.2,3.1v15.1c1.3-0.2,2.3-0.3,3.9-0.4l1.4-0.1v1.4v21.6
		l-1.2,0.2c-12.5,2.1-18.8,3.1-31.4,5.4L227.3,462z M230,439.1v19.7c11.2-2,17.5-3.1,28.7-4.9V436c-1.3,0.1-2.3,0.2-3.9,0.4
		l-1.5,0.2v-19.1l0.3-0.4c0.9-1.3,1.7-2.3,2.4-3.3c1.6-2.2,3-4.1,4.9-6.9l1.4-1.9l0.9,2.2c1.1,2.6,2.1,4.9,2.9,6.9
		c2.7,6.4,4.7,11.1,7.9,18.5l0.7,1.6l-1.8,0.3c-2.2,0.3-3.4,0.4-5.2,0.5h-0.4v17.3c13.8-2.1,25.5-3.8,36.5-5.2v-15.4
		c-0.3,0-0.4,0-0.6,0c-1.2,0.1-2.2,0.1-3.7,0.3l-1,0.1l-0.4-0.9c-7.2-15.3-14-30.8-20.3-45.3l-0.4-0.7l0.9-1.1
		c5.7-6.8,8.5-10.3,14.2-16.8l0.4-0.5l0.6,0.1c0.8,0.1,1.4,0.1,2.1,0.2c0.8,0.1,1.5,0.1,2.3,0.2v-15.6c-9.4-1.3-19.5-2.7-30.8-4.4
		v17.2c0.9,0.1,1.6,0.2,2.4,0.3c1.1,0.1,2.2,0.2,3.6,0.4l2.5,0.3l-1.5,2c-7.2,9-11,13.8-18.5,24.1l-2.4,3.4v-31.8l1.4,0.1
		c1.6,0.1,2.6,0.2,4,0.4c0-6.7,0-10.8-0.2-17.3l-2.3-0.4c-9.9-1.6-16-2.6-26.5-4.6v19.3c1.4,0.1,2.5,0.2,4.2,0.4l1.2,0.2v77.3
		l-1.3,0.1C232.4,438.9,231.4,438.9,230,439.1z M694.9,456c-2,0-4-0.2-5.8-0.7c-12.1-2.1-18.3-2.9-30-4.4l-1.2-0.2v-21.6l1.5,0.2
		c2,0.2,3.1,0.3,4.7,0.4v-59.8c-1.6,0.2-2.7,0.3-4.8,0.4l-1.4,0.1v-21.4l1.2-0.2c12.3-1.6,18.4-2.5,30.6-4.4
		c6.6-1,12.1-0.4,16.9,1.8c4.9,2.2,9,5.8,12.4,10.7c3.2,4.7,5.8,10.7,7.6,18c2,8,2.8,15.8,2.5,23.4c-0.4,15.7-1.9,31.9-10.1,45.4
		C714.6,451.1,704.3,456,694.9,456z M660.6,448.4c11.1,1.4,17.3,2.2,29.1,4.2h0.1c9.5,2.4,22.1-2.4,27-10.3
		c7.9-13,9.4-28.9,9.7-44.2c0.3-7.3-0.6-14.9-2.5-22.7c-1.7-6.9-4.1-12.7-7.2-17.1c-3.1-4.6-6.8-7.7-11.3-9.8
		c-4.3-2-9.4-2.5-15.5-1.6c-11.7,1.8-17.8,2.7-29.4,4.2v16.2c1.6-0.1,2.8-0.2,4.7-0.4l1.5-0.2v65.9l-1.4-0.1c-2-0.2-3.1-0.3-4.8-0.4
		L660.6,448.4L660.6,448.4z M656.7,450.5l-1.5-0.2c-12.1-1.5-26.2-3.2-40.5-4.6l-1.3-0.1v-19.4l1.4,0.1c3.1,0.2,4.9,0.4,7.7,0.4
		c-0.3-1-0.4-1.9-0.6-2.7c-0.3-1.1-0.5-2.2-0.8-3.5c-7.3-0.4-11.3-0.4-18.6-0.8c-0.3,1.2-0.5,2.2-0.8,3.1c-0.2,0.8-0.4,1.6-0.6,2.5
		c1.2,0.1,2.2,0.1,3.2,0.2c0.9,0,1.8,0.1,3,0.2l1.3,0.1V445l-1.5-0.2c-11.5-1.2-22-2-32.1-2.6l-1.3-0.1V424l1.3,0.1
		c1.4,0.1,2.4,0.1,3.5,0.2c0.7,0.1,1.4,0.1,2.3,0.2l3.1-12c3.2-12.6,6.7-25.6,9.9-38.2c-0.7,0-1.3,0.1-2.2,0.2l-1.5,0.2v-18.5
		l1.3-0.1c12-1.1,24-2.2,35.7-3.4l4.2-0.4l0.3,1.2c5.8,23.8,11.9,49.6,17.7,75.6c2.1,0.2,3.5,0.3,5.8,0.4l1.4,0.1v21.1H656.7z
		 M616.2,443.1c13.2,1.3,26.5,2.9,37.8,4.3v-15.6c-2.1-0.1-3.4-0.3-5.8-0.4l-1-0.1l-0.2-1c-5.8-25.9-11.9-51.5-17.6-75.3l-1.9,0.2
		c-11.3,1.1-22.9,2.2-34.5,3.2v13c0.5,0,1-0.1,1.5-0.1c0.4,0,0.7,0,1.2-0.1l1.8-0.1L597,373c-3.4,13.3-6.9,26.9-10.3,40l-3.7,14.1
		h-1.1c-1.4-0.1-2.4-0.1-3.5-0.2c-0.6,0-1.3-0.1-2-0.1v12.8c9.3,0.5,19,1.3,29.5,2.4v-13.7c-0.5,0-1.1-0.1-1.6-0.1
		c-1.5-0.1-3-0.1-4.9-0.3l-1.5-0.1l0.4-1.5c0.4-1.6,0.7-2.9,1-4.1c0.4-1.3,0.6-2.5,1.1-4.1l0.3-1.1l1.1,0.1
		c8.4,0.4,12.5,0.5,20.7,0.9l1.2,0.1l0.3,1c0.4,1.8,0.7,3.1,1.1,4.5c0.3,1.3,0.6,2.7,1,4.5l0.4,1.7l-2.3-0.1c-3-0.2-4.9-0.3-7.6-0.4
		L616.2,443.1L616.2,443.1z M309.1,449.3v-21l1.2-0.1c1.7-0.2,2.8-0.3,4.1-0.4c0.4,0,0.7,0,1.1-0.1v-56c-1-0.1-1.9-0.2-2.8-0.2
		c-0.7,0-1.4-0.1-2.3-0.2l-1.3-0.1v-21.1l1.5,0.2c11.3,1.3,22.8,2.6,33.5,3.7l1.2,0.1v19.3l-1.4-0.1c-1.3-0.1-2.2-0.1-3.2-0.2
		c-0.5,0-1-0.1-1.5-0.1v52.9c0.6,0,1.2-0.1,1.7-0.1c0.9-0.1,1.9-0.1,3.1-0.2l1.4-0.1v19.4l-1.3,0.1c-10.3,1-21.6,2.2-33.5,3.7
		L309.1,449.3z M311.8,430.7v15.5c10.9-1.3,21.2-2.4,30.8-3.4v-14.2c-0.5,0-1.1,0.1-1.5,0.1c-1,0.1-2,0.2-3.2,0.2l-1.4,0.1v-58.5
		l1.4,0.1c1.2,0,2.2,0.1,3.1,0.2c0.5,0,1.1,0.1,1.7,0.1v-14c-9.9-1-20.3-2.2-30.8-3.4v15.5c0.4,0,0.7,0,1.1,0.1
		c1.3,0.1,2.4,0.1,4.1,0.4l1.2,0.1v60.9l-1.3,0.1c-0.9,0.1-1.6,0.1-2.3,0.2C313.7,430.5,312.8,430.6,311.8,430.7z M347.7,445v-19
		l1.3-0.1c1.2,0,2.1-0.1,3-0.2c0.5,0,1.2-0.1,1.8-0.1v-52c-0.6,0-1.2-0.1-1.8-0.1c-0.9-0.1-1.7-0.1-2.8-0.2l-1.3-0.1v-18.9l1.4,0.2
		c11.4,1.1,17.2,1.5,29.1,2.4l0.7,0.1l0.4,0.6c7.2,12.9,14.8,26,22.4,39c0-3.1,0-5.8,0-8.6c0-3.7,0-7.5,0-12.1c-0.2,0-0.4,0-0.6,0
		c-1.6-0.1-3-0.1-5-0.2l-1.3-0.1V358l1.4,0.1c12.2,0.7,18.4,1.1,30.6,1.5l1.3,0.1v1.3c-0.2,5.8-0.2,8.5-0.2,14.3v1.3l-1.4-0.1
		c-2.1-0.1-3.4-0.1-5.2-0.1v63.5l-1.7,0.1c-8.5,0.4-12.9,0.5-21.3,1.1l-0.8,0.1l-2.9-4.8c-6.9-11.5-14-23.4-20.9-35.4v23.7
		c1,0,1.8-0.1,2.6-0.1c1.2-0.1,2.3-0.1,3.9-0.2h1.3v17.8l-2.1,0.2c-11.7,0.8-18.2,1.3-30.2,2.4H347.7z M350.4,428.7v13.4
		c11.1-1,17.5-1.5,28.4-2.2v-12.5c-0.9,0-1.6,0.1-2.4,0.1c-1.2,0.1-2.4,0.2-4,0.2H371V391l2.5,4.4c7.6,13.4,15.6,26.7,23.4,39.7
		l2.1,3.4c7.6-0.4,12-0.6,19.7-1v-63.6h1.3c2.2,0,3.5,0,5.3,0.1c0-4.4,0-7.1,0.2-11.6c-10.9-0.4-17-0.7-27.9-1.4v12.1
		c1.3,0.1,2.4,0.1,3.7,0.2c0.6,0,1.3,0,2,0.1h1.3v1.3c0,5.4,0,9.4,0,13.5c0,4,0.1,8.2,0.1,13.6v4.9l-2.5-4.3
		c-8.4-14.2-16.6-28.6-24.6-42.7c-10.9-0.8-16.6-1.3-26.9-2.2v13.4c0.5,0,1.1,0.1,1.6,0.1c0.9,0.1,1.8,0.2,3,0.2l1.3,0.1v57.2
		l-1.3,0.1c-1.2,0-2.1,0.1-3,0.2C351.6,428.6,351.1,428.7,350.4,428.7z M572.6,441.9l-1.4-0.1c-19.6-1.2-39.7-2.2-61.3-2.8h-1.3
		v-17.3h1.3c2.1,0,3.2,0,5.1,0.1v-45c-0.6,0-1.2,0-1.7,0c-1,0-2,0.1-3.4,0.1h-1.3v-16.7h1.3c18.9-0.5,38.9-1.4,61.2-2.8l1.4-0.1
		v28.6h-1.3c-3.5,0-6.1,0.1-8.7,0.2c-2.6,0.1-5.3,0.1-8.8,0.2h-1.3v-10.1c-5.2,0.2-8.4,0.3-13.6,0.4v12.8c1.5,0,2.9,0,4.1,0
		c4.5,0,8.1-0.1,13.8-0.2h1.3v18h-1.3c-7.3-0.1-11.1-0.1-17.9-0.1v15.7c3.5,0.2,6,0.2,9,0.3c1.4,0,2.9,0.1,4.6,0.1v-10.6h1.3
		c3.5,0,6.2,0.1,8.8,0.2c2.6,0.1,5.2,0.1,8.7,0.2h1.3L572.6,441.9L572.6,441.9z M511.3,436.3c20.6,0.6,39.8,1.5,58.6,2.7v-23.7
		c-2.9,0-5.1-0.1-7.5-0.2c-2.2-0.1-4.6-0.1-7.4-0.2v10.6h-1.3c-2.3-0.1-4.2-0.1-5.9-0.2c-3.3-0.1-6.1-0.1-10.3-0.3l-1.3-0.1v-20.9
		h1.3c7.2,0,11.1,0,17.9,0.1v-12.5c-4.9,0.1-8.3,0.2-12.4,0.2c-1.6,0-3.4,0-5.5,0.1h-1.3v-18.2h1.3c6.6-0.1,9.7-0.2,16.3-0.4
		l1.4-0.1v10.2c2.9,0,5.1-0.1,7.4-0.2c2.3-0.1,4.6-0.1,7.5-0.2v-22.9c-21.2,1.3-40.5,2.2-58.6,2.7v11.3c0.7,0,1.3,0,2,0
		c1,0,1.9,0,3.1,0h1.3v50.5l-1.3-0.1c-2.2-0.1-3.4-0.1-5.1-0.1v11.8H511.3z M430.5,439.7v-17.3h1.3c1.1,0,1.9,0,2.7,0
		c0.4,0,1,0,1.5,0v-45.2c-0.5,0-1,0-1.4,0c-0.8,0-1.7-0.1-2.8-0.1h-1.3v-17.4l1.3,0.1c11.1,0.4,22.2,0.5,33,0.7h1.3v17h-6.4v13.7
		h16.6v-13.8h-6v-17h1.3c10.9,0.1,22,0,33.1-0.3h1.3v17.1h-1.3c-1.8,0-3,0-4.5,0v44.7c1.5,0,2.8,0,4.6,0.1l1.3,0.1v17.1h-1.3
		c-11-0.3-22-0.4-33.1-0.3h-1.3v-17h6v-13.8h-16.6V422h6.4v17h-1.3c-9.9,0.1-20.4,0.3-33,0.7H430.5z M433.2,425.1V437
		c11.4-0.4,21.1-0.5,30.3-0.6v-11.6h-6.4v-19.2h22v19.1h-6v11.6c10.2-0.1,20.3,0,30.4,0.3v-11.7c-1.5,0-2.7,0-4.5,0h-1.3v-50
		l1.3-0.1c1.8-0.1,3-0.1,4.6-0.1V363c-10.2,0.3-20.3,0.4-30.4,0.3v11.6h6v19.1h-22v-19.1h6.4v-11.6c-9.9-0.2-20.2-0.4-30.3-0.6v12
		c0.5,0,1.1,0,1.5,0c0.8,0,1.6,0,2.7,0h1.3v50.5h-1.3c-1.1,0-2,0-2.8,0C434.2,425.1,433.7,425.1,433.2,425.1z M690.6,434.6
		c-0.2,0-0.4,0-0.5,0c-0.7-0.1-1.3-0.1-1.9-0.2c-0.5-0.1-1.2-0.1-1.9-0.2l-1.3-0.1V365l1.3-0.1c0.6,0,1.2-0.1,1.7-0.2
		c0.6-0.1,1.3-0.2,2.1-0.2c3-0.3,5.6,0.5,7.8,2.4c2.2,2,3.8,4.6,4.9,7.6c1,2.8,2.1,6.5,2.7,11c0.5,4,0.8,8.5,0.8,12.8
		c0,4.4-0.3,9.1-0.8,14.3c-0.5,4.3-1.4,8.2-2.7,11.8c-1.3,3.4-2.9,6.1-4.9,7.8C695.9,433.8,693.5,434.6,690.6,434.6z M687.7,431.6
		c0.3,0,0.5,0.1,0.8,0.1c0.5,0.1,1.1,0.1,1.7,0.2c2.4,0.1,4.3-0.5,5.8-1.8c1.7-1.4,3.1-3.7,4.2-6.7c1.2-3.3,2.1-7,2.5-11.2
		c0.5-5,0.8-9.6,0.8-13.9c0-4.2-0.3-8.5-0.8-12.4c-0.5-4.2-1.6-7.7-2.5-10.3c-1-2.5-2.5-4.8-4.2-6.5c-1.6-1.3-3.5-1.9-5.8-1.7
		c-0.8,0.1-1.3,0.1-2,0.2c-0.2,0-0.4,0.1-0.6,0.1V431.6z M620.2,405h-1.7c-2.7,0-4.7,0-6.7-0.1c-2,0-4,0-6.6,0h-1.7l0.4-1.7
		c2.2-8.5,3.4-13.8,5.1-21.1l2.8-11.7l1.3,5.5c1,4,1.8,7.4,2.6,10.5c1.3,5.1,2.4,9.9,4,16.9L620.2,405z M607,402.2
		c1.8,0,3.3,0,4.9,0c1.5,0,3.1,0,4.9,0c-1.4-6-2.5-10.5-3.7-15.2c-0.4-1.6-0.8-3.3-1.3-5.1l-0.2,0.7
		C610.2,389.6,608.9,394.6,607,402.2z"/>
</g>
<text transform="matrix(1 0 0 1 386.5849 475.4362)" fill="#1D1D1B" stroke="#FFFFFF" stroke-width="2.699" stroke-miterlimit="10" font-family="'ChunkFive'" font-size="43.1839px">.SOCIAL</text>
<path fill="#1D1D1B" stroke="#921822" stroke-width="1.6924" stroke-miterlimit="10" d="M132,378c-0.4-0.4-0.6-0.6-0.7-0.7
	c-4.9-70.2-113.2-70.9-117.8,0.8c-18.1,3.2-12.9,37.3,3.4,40.3c11.2,30.4,16.2,58.2,55.2,53c37.6,6.8,46.8-35,49.4-39.5
	c1-1.3,5.2-11.9,6.8-13.5C145,416,150.5,381.4,132,378z M82.3,341c-0.2,13.9-32.3,15.6-33.3,1.4C49.3,328.6,81.3,326.7,82.3,341z
	 M40.7,343.4c7.3,0.4,4.6,9.5,0.6,13.8c-3.6,5-12.9,7.4-13.1-0.1C27.9,352.8,35.7,342.8,40.7,343.4z M29.3,407.3
	c-6.1-4.3-9.2-9.6-9.2-15.9c0-5.5,1.5-8.2,4.5-8.2c1.6,0,4.7,1.2,9.2,3.5v19.9c4.2,2.6,8.7,1.7,13,1.8c0,0,0-5.7,0-17.1
	c0.6,0,1.6,0.1,3.1,0.4V408c2-0.3,4-1.1,6.2-2.4c0.2-1.3,0.3-5.1,0.3-11.4c6.3,2.7,9.9,4.3,10.7,4.8C62.9,415,41.1,416.7,29.3,407.3
	z M56.6,443h-5.5l-0.6-0.6V436c2.1-1.9,4-1.9,6.1,0.1V443z M62.9,449.5c-1.5,2.8-3.7,2.8-6.1,0.1v-6.5h6.1V449.5z M69.1,436.1v6.9
	h-5.6C61.6,438.6,63.8,431.2,69.1,436.1z M75.1,450.1c-2.1,2.5-5.3,1.5-6.1-1.1v-5.8h6.1V450.1z M81.3,443h-5.5
	c-1.5-4.4-0.3-11,5.5-7.5V443z M87.5,450.1c-1.9,2.4-5.6,1.7-6.1-1.1v-5.8h6.1V450.1z M94.2,443h-6.1c-1.3-2.6-0.6-9,2.8-8.5
	c1,0,3.4,1.3,3.2,2.5V443z M86,410c-5.2-2.7-8-6.4-8.5-11c2.5-2.5,5.4-2.8,10.4-4.4c-0.1,2.6,0,6.5,0.1,11.6
	c2.8,1.5,4.6,2.3,5.4,2.3h7.8V390c2-0.8,3.1-1.3,3.2-1.4V408c3.1-0.9,5.2-1.7,6.3-2.4v-19.5c10.4-3.3,13-5.8,13.7,4.9
	C124.5,408.5,100.4,418.5,86,410z"/>
<path fill="#FFFFFF" d="M75.8,378.6c0.1,0,0.1-0.3,0.1-0.5c0-0.4-0.4-0.6-0.7-0.6c-0.4,0-1.1,0-1.7,0c0-1.9-0.3-3.3-1.2-2.7
	c0.1,0.1,0.1,1.2,0,2.6c-1.6-0.1-3,0.1-2.4,1.2h2.3c-0.2,3-0.2,6.5,1.1,5.6c-0.2-0.2,0.1-3,0.1-5.6
	C73.5,378.6,75.2,378.8,75.8,378.6z"/>
<path fill-rule="evenodd" clip-rule="evenodd" fill="#FFFFFF" stroke="#F5F5F5" stroke-width="0.2821" stroke-miterlimit="10" d="
	M120.4,416.8c1.3-0.7,0-2.6-1.1-3.1c-0.1-0.1-0.3,0-0.3,0.2c-0.3,1.1-0.6,3.1,0.8,3.1c0.1,0,0.2,0.1,0.3,0c0,0,0.1,0,0.1,0
	C120.2,416.9,120.3,416.9,120.4,416.8z"/>
</svg>
